<svg width="96" height="96" viewBox="0 0 96 96" fill="none" xmlns="http://www.w3.org/2000/svg">
<circle cx="48" cy="48" r="48" fill="#F2F2F2"/>
<g filter="url(#filter0_d_419_28)">
<path fill-rule="evenodd" clip-rule="evenodd" d="M45.3152 56.1905C34.8795 52.5328 25.7575 48.3217 19.4461 44.4704C12.8515 40.4462 9.25366 36.6681 10.2155 34.091C11.177 31.5148 16.4359 30.8418 24.16 31.8363C31.5559 32.7884 41.3482 35.2062 51.7832 38.8634C62.2186 42.5209 71.3406 46.7321 77.6518 50.5836C84.2462 54.6077 87.8442 58.3856 86.8824 60.9627C85.921 63.539 80.6627 64.2122 72.9387 63.2179C65.543 62.2658 55.7504 59.8477 45.3152 56.1905ZM20.274 43.196C26.4974 46.9935 35.5127 51.1533 45.8446 54.7745C56.1772 58.3959 65.8515 60.7872 73.1393 61.7255C80.0989 62.6215 84.7429 62.2668 85.4212 60.4497C86.0989 58.6332 82.7639 55.4827 76.8237 51.858C70.6005 48.0602 61.585 43.9004 51.2536 40.2793C40.9214 36.658 31.2472 34.267 23.9592 33.3287C16.9992 32.4325 12.3548 32.7871 11.6765 34.6042C10.9988 36.4206 14.3339 39.5712 20.274 43.196Z" fill="url(#paint0_linear_419_28)"/>
<path fill-rule="evenodd" clip-rule="evenodd" d="M50.925 56.4427C40.1961 59.1856 30.2217 60.7496 22.769 61.0603C14.983 61.3847 9.80598 60.261 9.08454 57.6112C8.36378 54.9626 12.2945 51.5105 19.2324 48.0707C25.8757 44.7769 35.3483 41.3683 46.0751 38.6255L46.0871 38.6242L46.0866 38.6227C56.8126 35.8812 66.7856 34.3182 74.2382 34.008C82.0204 33.6841 87.1942 34.8083 87.9157 37.4574L87.9433 37.5585V37.5706C88.5243 40.2037 84.6072 43.6072 77.767 46.9983C71.1242 50.2919 61.6517 53.7005 50.9253 56.4427H50.925ZM22.7021 59.556C30.0485 59.2495 39.905 57.7018 50.5291 54.9857C61.1555 52.2691 70.5165 48.9037 77.0604 45.6593C83.3094 42.5611 86.9206 39.71 86.4117 37.8412C85.9014 35.9734 81.3105 35.2205 74.2986 35.5123C66.9564 35.818 57.104 37.3649 46.4821 40.0798L46.4701 40.0811L46.4706 40.0826C35.8439 42.7997 26.4827 46.1653 19.9384 49.4097C13.6898 52.5079 10.0792 55.3588 10.5879 57.2276C11.0961 59.0951 15.6885 59.8483 22.7019 59.556H22.7021Z" fill="url(#paint1_linear_419_28)"/>
<path fill-rule="evenodd" clip-rule="evenodd" d="M54.9729 43.0601C48.6022 34.3901 42.0469 27.0907 36.5988 22.2984C31.4015 17.7267 27.3751 15.4589 25.7517 16.5792C24.1282 17.6995 25.0225 22.1291 27.7808 28.3851C30.6677 34.9322 35.6339 43.3116 41.9963 51.9739L42.0165 52.0011C48.3873 60.6717 54.9424 67.9708 60.3903 72.7631C65.5877 77.3348 69.6143 79.6025 71.2376 78.4822C72.8611 77.3621 71.9668 72.9321 69.2082 66.6761C66.3183 60.1219 61.3447 51.7319 54.973 43.0601H54.9729ZM37.646 21.1831C43.1659 26.039 49.8001 33.4241 56.239 42.1869C62.6765 50.9484 67.708 59.4402 70.6386 66.0863C73.7002 73.0297 74.4423 78.1198 72.1385 79.7093C69.8347 81.299 65.1134 78.9542 59.3431 73.8783C53.8285 69.0273 47.2021 61.6519 40.7693 52.9002L40.7492 52.873C34.3118 44.112 29.2807 35.6207 26.3502 28.9751C23.2887 22.0317 22.5468 16.9418 24.8506 15.3522C27.1545 13.7627 31.8756 16.1075 37.646 21.1832V21.1831Z" fill="url(#paint2_linear_419_28)"/>
<path fill-rule="evenodd" clip-rule="evenodd" d="M56.4594 47.4202C56.356 36.7797 55.2919 27.1606 53.6555 20.2101C52.0941 13.5786 50.1309 9.48612 48.1368 9.50433C46.1446 9.52238 44.2619 13.6506 42.829 20.3099C41.3272 27.2894 40.4497 36.928 40.5528 47.5708L40.5558 47.5788H40.5528C40.6561 58.2193 41.7204 67.8384 43.3566 74.7891C44.918 81.4206 46.8813 85.5134 48.8755 85.4952C50.8678 85.4771 52.7505 81.3487 54.1834 74.6893C55.6852 67.7095 56.5624 58.0705 56.4594 47.4272L56.4564 47.4213L56.4594 47.4202ZM55.1713 19.8797C56.8299 26.923 57.9079 36.658 58.0119 47.4143L58.0149 47.4202L58.0119 47.4213C58.1156 58.1747 57.2264 67.9251 55.7052 74.9961C54.1146 82.3884 51.7163 86.9743 48.8875 86.9999C46.0608 87.0256 43.5745 82.4834 41.8407 75.1197C40.1825 68.0765 39.1042 58.3415 39.0004 47.5847L38.9973 47.5769H39.0004C38.8967 36.8238 39.7858 27.0741 41.3071 20.0032C42.8978 12.6111 45.296 8.02554 48.1247 8.00011C50.9512 7.97435 53.4376 12.5161 55.1713 19.8798V19.8797Z" fill="url(#paint3_linear_419_28)"/>
<path fill-rule="evenodd" clip-rule="evenodd" d="M55.7251 53.4478C48.5463 61.6492 41.2903 68.4643 35.3632 72.8523C29.1706 77.4368 24.2621 79.3865 22.1058 77.6143C19.9479 75.8407 21.1311 70.8292 24.7884 64.161C28.2872 57.7815 34.0422 49.7334 41.2229 41.5295L41.2248 41.5274C48.4033 33.3265 55.6588 26.5119 61.5853 22.1243C67.7779 17.5401 72.6863 15.5907 74.8424 17.3632L74.8912 17.4047C76.9812 19.2141 75.7899 24.1973 72.1626 30.8123C68.666 37.189 62.9139 45.2338 55.7368 53.435L55.7251 53.448V53.4478ZM34.4195 71.6547C40.2633 67.3286 47.4314 60.5929 54.5379 52.4744L54.5498 52.4616C61.6504 44.3473 67.3358 36.3978 70.7868 30.1043C74.0794 24.0999 75.3565 19.7619 73.8381 18.5138C72.3168 17.2638 68.1066 19.1928 62.5291 23.3218C56.6858 27.6478 49.5182 34.3828 42.4122 42.5009L42.4103 42.5032C35.3058 50.6197 29.6171 58.5728 26.1642 64.8688C22.8697 70.8755 21.5916 75.2153 23.1105 76.4639C24.6312 77.7136 28.8417 75.7843 34.4196 71.6547H34.4195Z" fill="url(#paint4_linear_419_28)"/>
</g>
<defs>
<filter id="filter0_d_419_28" x="6" y="7" width="85" height="85" filterUnits="userSpaceOnUse" color-interpolation-filters="sRGB">
<feFlood flood-opacity="0" result="BackgroundImageFix"/>
<feColorMatrix in="SourceAlpha" type="matrix" values="0 0 0 0 0 0 0 0 0 0 0 0 0 0 0 0 0 0 127 0" result="hardAlpha"/>
<feOffset dy="2"/>
<feGaussianBlur stdDeviation="1.5"/>
<feComposite in2="hardAlpha" operator="out"/>
<feColorMatrix type="matrix" values="0 0 0 0 0 0 0 0 0 0 0 0 0 0 0 0 0 0 0.4 0"/>
<feBlend mode="normal" in2="BackgroundImageFix" result="effect1_dropShadow_419_28"/>
<feBlend mode="normal" in="SourceGraphic" in2="effect1_dropShadow_419_28" result="shape"/>
</filter>
<linearGradient id="paint0_linear_419_28" x1="38.9656" y1="62.4753" x2="38.9695" y2="32.2284" gradientUnits="userSpaceOnUse">
<stop stop-color="#F0891A"/>
<stop offset="0.2" stop-color="#8C5921"/>
<stop offset="0.501961" stop-color="#282828"/>
<stop offset="0.8" stop-color="#627A1F"/>
<stop offset="1" stop-color="#9CCC16"/>
</linearGradient>
<linearGradient id="paint1_linear_419_28" x1="38.6645" y1="60.1202" x2="38.6672" y2="34.6533" gradientUnits="userSpaceOnUse">
<stop stop-color="#F0891A"/>
<stop offset="0.2" stop-color="#8C5921"/>
<stop offset="0.501961" stop-color="#282828"/>
<stop offset="0.8" stop-color="#627A1F"/>
<stop offset="1" stop-color="#9CCC16"/>
</linearGradient>
<linearGradient id="paint2_linear_419_28" x1="42.2713" y1="77.8088" x2="42.2958" y2="16.5431" gradientUnits="userSpaceOnUse">
<stop stop-color="#F0891A"/>
<stop offset="0.2" stop-color="#8C5921"/>
<stop offset="0.501961" stop-color="#282828"/>
<stop offset="0.8" stop-color="#627A1F"/>
<stop offset="1" stop-color="#9CCC16"/>
</linearGradient>
<linearGradient id="paint3_linear_419_28" x1="46.1372" y1="84.1072" x2="46.2313" y2="10.0348" gradientUnits="userSpaceOnUse">
<stop stop-color="#F0891A"/>
<stop offset="0.2" stop-color="#8C5921"/>
<stop offset="0.501961" stop-color="#282828"/>
<stop offset="0.8" stop-color="#627A1F"/>
<stop offset="1" stop-color="#9CCC16"/>
</linearGradient>
<linearGradient id="paint4_linear_419_28" x1="41.6403" y1="76.0089" x2="41.6601" y2="18.2998" gradientUnits="userSpaceOnUse">
<stop stop-color="#F0891A"/>
<stop offset="0.2" stop-color="#8C5921"/>
<stop offset="0.501961" stop-color="#282828"/>
<stop offset="0.8" stop-color="#627A1F"/>
<stop offset="1" stop-color="#9CCC16"/>
</linearGradient>
</defs>
</svg>
