<svg width="96" height="99" viewBox="0 0 96 99" fill="none" xmlns="http://www.w3.org/2000/svg">
<path fill-rule="evenodd" clip-rule="evenodd" d="M44.1298 60.3905C31.4485 55.8068 20.3635 50.5296 12.6939 45.7033C4.68035 40.6603 0.308259 35.9257 1.4771 32.6962C2.64553 29.4679 9.03599 28.6245 18.4223 29.8707C27.4097 31.0638 39.3092 34.0937 51.9897 38.6768C64.6707 43.2603 75.7556 48.5377 83.425 53.3642C91.4384 58.407 95.8107 63.1414 94.6419 66.3709C93.4736 69.5994 87.0838 70.443 77.6977 69.197C68.7105 68.0039 56.8106 64.9736 44.1298 60.3905ZM13.7 44.1063C21.2626 48.8652 32.218 54.0781 44.7732 58.6161C57.3292 63.1543 69.0853 66.1509 77.9415 67.3268C86.3986 68.4496 92.042 68.0051 92.8663 65.728C93.6899 63.4517 89.6371 59.5035 82.4187 54.9612C74.8563 50.2019 63.9008 44.989 51.3462 40.4512C38.7905 35.9132 27.0346 32.9168 18.1783 31.7409C9.72051 30.6179 4.0767 31.0622 3.25248 33.3393C2.42888 35.6156 6.48166 39.5638 13.7 44.1063Z" fill="url(#paint0_linear_414_25)"/>
<path fill-rule="evenodd" clip-rule="evenodd" d="M50.9468 60.7066C37.9091 64.144 25.7884 66.1039 16.7319 66.4933C7.27051 66.8998 0.979419 65.4916 0.102736 62.1709C-0.773123 58.8518 4.00347 54.5257 12.4343 50.2151C20.5072 46.0874 32.0182 41.8159 45.0532 38.3787L45.0678 38.377L45.0672 38.3752C58.1014 34.9396 70.2205 32.981 79.2768 32.5922C88.7337 32.1863 95.0208 33.5951 95.8975 36.9149L95.9311 37.0416V37.0568C96.6372 40.3565 91.8771 44.6216 83.5649 48.8712C75.4927 52.9986 63.9818 57.2702 50.9472 60.7066H50.9468ZM16.6507 64.608C25.578 64.224 37.5555 62.2844 50.4658 58.8808C63.3788 55.4765 74.7543 51.259 82.7064 47.1932C90.3 43.3107 94.6884 39.7378 94.0699 37.3959C93.4498 35.0552 87.871 34.1116 79.3502 34.4774C70.4281 34.8605 58.4555 36.799 45.5479 40.2012L45.5332 40.2029L45.5339 40.2047C32.6204 43.6096 21.2448 47.8273 13.2923 51.8931C5.69902 55.7756 1.31149 59.3483 1.92955 61.6902C2.5472 64.0305 8.12785 64.9744 16.6505 64.608H16.6507Z" fill="url(#paint1_linear_414_25)"/>
<path fill-rule="evenodd" clip-rule="evenodd" d="M55.8658 43.9361C48.1242 33.0713 40.1583 23.9238 33.5378 17.9184C27.2221 12.1892 22.3292 9.34727 20.3565 10.7512C18.3836 12.1551 19.4704 17.7062 22.8222 25.5459C26.3304 33.7506 32.3653 44.2513 40.0968 55.1066L40.1213 55.1407C47.8631 66.0064 55.8288 75.1534 62.449 81.1589C68.7648 86.888 73.6579 89.7298 75.6305 88.3259C77.6034 86.9222 76.5167 81.3707 73.1645 73.5309C69.6526 65.3174 63.6088 54.8033 55.866 43.9361H55.8658ZM34.8104 16.5206C41.5181 22.6059 49.5798 31.8606 57.4044 42.8419C65.2272 53.8215 71.3414 64.4631 74.9026 72.7918C78.6231 81.493 79.5249 87.8717 76.7253 89.8636C73.9257 91.8558 68.1885 88.9174 61.1765 82.5564C54.4751 76.4773 46.4229 67.2347 38.6058 56.2674L38.5813 56.2333C30.7586 45.2543 24.6449 34.6133 21.0839 26.2853C17.3636 17.584 16.462 11.2056 19.2616 9.21362C22.0611 7.22167 27.7982 10.1601 34.8104 16.5208V16.5206Z" fill="url(#paint2_linear_414_25)"/>
<path fill-rule="evenodd" clip-rule="evenodd" d="M57.6722 49.4C57.5465 36.0657 56.2534 24.0114 54.2649 15.3013C52.3675 6.9909 49.9818 1.86235 47.5586 1.88518C45.1378 1.90779 42.8499 7.08116 41.1086 15.4263C39.2837 24.1728 38.2173 36.2516 38.3426 49.5887L38.3463 49.5988H38.3426C38.4681 62.9331 39.7614 74.9874 41.7497 83.6977C43.6471 92.0081 46.033 97.137 48.4562 97.1142C50.8772 97.0916 53.1651 91.918 54.9064 83.5727C56.7313 74.8258 57.7973 62.7466 57.6722 49.4088L57.6685 49.4014L57.6722 49.4ZM56.1069 14.8872C58.1224 23.7136 59.4324 35.9131 59.5587 49.3926L59.5624 49.4L59.5587 49.4014C59.6848 62.8771 58.6042 75.096 56.7556 83.9572C54.8228 93.221 51.9084 98.9678 48.4708 98.9999C45.0359 99.0321 42.0145 93.34 39.9077 84.112C37.8926 75.2858 36.5822 63.0862 36.4561 49.6062L36.4524 49.5963H36.4561C36.3302 36.121 37.4106 23.903 39.2592 15.042C41.1922 5.77841 44.1066 0.0320063 47.544 0.000136592C50.9787 -0.0321443 54.0001 5.65937 56.1069 14.8874V14.8872Z" fill="url(#paint3_linear_414_25)"/>
<path fill-rule="evenodd" clip-rule="evenodd" d="M56.7799 56.9535C48.0563 67.2312 39.2389 75.7717 32.0363 81.2705C24.5112 87.0157 18.5464 89.459 15.926 87.2382C13.3038 85.0155 14.7415 78.7353 19.1859 70.3789C23.4376 62.3843 30.4311 52.2987 39.157 42.018L39.1592 42.0153C47.8825 31.7383 56.6993 23.1984 63.9012 17.7C71.4264 11.9552 77.3909 9.51236 80.0111 11.7336L80.0703 11.7856C82.6101 14.0531 81.1624 20.2979 76.7545 28.5875C72.5055 36.5785 65.5157 46.6601 56.7941 56.9375L56.7799 56.9537V56.9535ZM30.8895 79.7698C37.9908 74.3484 46.7015 65.9075 55.3372 55.7337L55.3516 55.7176C63.9802 45.5491 70.8891 35.5871 75.0827 27.7003C79.0838 20.1757 80.6357 14.7396 78.7906 13.1755C76.942 11.609 71.8257 14.0263 65.048 19.2007C57.9473 24.6219 49.2373 33.062 40.6021 43.2352L40.5999 43.2381C31.9666 53.4094 25.0537 63.376 20.8577 71.2659C16.8543 78.7933 15.3012 84.2317 17.1469 85.7964C18.9949 87.3626 24.1114 84.9448 30.8897 79.7698H30.8895Z" fill="url(#paint4_linear_414_25)"/>
<defs>
<linearGradient id="paint0_linear_414_25" x1="54.4079" y1="32.0396" x2="41.6887" y2="65.5939" gradientUnits="userSpaceOnUse">
<stop stop-color="#7CC000"/>
<stop offset="1" stop-color="#C36300"/>
</linearGradient>
<linearGradient id="paint1_linear_414_25" x1="48" y1="32.5242" x2="48" y2="66.5614" gradientUnits="userSpaceOnUse">
<stop stop-color="#7CC000"/>
<stop offset="1" stop-color="#C36300"/>
</linearGradient>
<linearGradient id="paint2_linear_414_25" x1="47.9934" y1="8.59698" x2="47.9934" y2="90.4804" gradientUnits="userSpaceOnUse">
<stop stop-color="#7CC000"/>
<stop offset="1" stop-color="#C36300"/>
</linearGradient>
<linearGradient id="paint3_linear_414_25" x1="48.0074" y1="0" x2="48.0074" y2="99" gradientUnits="userSpaceOnUse">
<stop stop-color="#7CC000"/>
<stop offset="1" stop-color="#C36300"/>
</linearGradient>
<linearGradient id="paint4_linear_414_25" x1="47.9684" y1="10.9208" x2="47.9684" y2="88.0506" gradientUnits="userSpaceOnUse">
<stop stop-color="#7CC000"/>
<stop offset="1" stop-color="#C36300"/>
</linearGradient>
</defs>
</svg>
