<svg width="96" height="96" viewBox="0 0 96 96" fill="none" xmlns="http://www.w3.org/2000/svg">
<path fill-rule="evenodd" clip-rule="evenodd" d="M44.1298 58.5605C31.4485 54.1157 20.3635 48.9984 12.6939 44.3184C4.68035 39.4282 0.308259 34.8371 1.4771 31.7054C2.64553 28.5749 9.03599 27.7571 18.4223 28.9655C27.4097 30.1225 39.3092 33.0606 51.9897 37.5048C64.6707 41.9494 75.7556 47.0669 83.425 51.7471C91.4384 56.6371 95.8107 61.228 94.6419 64.3597C93.4736 67.4904 87.0838 68.3084 77.6977 67.1002C68.7105 65.9432 56.8106 63.0047 44.1298 58.5605ZM13.7 42.7698C21.2626 47.3845 32.218 52.4393 44.7732 56.8399C57.3292 61.2406 69.0854 64.1463 77.9415 65.2866C86.3987 66.3754 92.0421 65.9444 92.8663 63.7362C93.6899 61.5289 89.6371 57.7004 82.4187 53.2957C74.8563 48.6806 63.9008 43.6258 51.3462 39.2254C38.7905 34.8249 27.0346 31.9193 18.1783 30.7791C9.72051 29.6901 4.0767 30.1209 3.25248 32.3291C2.42888 34.5364 6.48166 38.3649 13.7 42.7698Z" fill="url(#paint0_linear_414_26)"/>
<path fill-rule="evenodd" clip-rule="evenodd" d="M50.9468 58.867C37.9091 62.2003 25.7884 64.1008 16.7319 64.4784C7.27051 64.8726 0.979419 63.507 0.102736 60.287C-0.773123 57.0684 4.00347 52.8735 12.4343 48.6935C20.5072 44.6909 32.0182 40.5488 45.0532 37.2157L45.0678 37.2141L45.0672 37.2124C58.1014 33.8809 70.2205 31.9816 79.2768 31.6046C88.7337 31.211 95.0208 32.5772 95.8975 35.7964L95.9311 35.9192V35.9339C96.6372 39.1336 91.8771 43.2695 83.5649 47.3903C75.4927 51.3927 63.9818 55.5348 50.9472 58.867H50.9468ZM16.6507 62.6503C25.578 62.2778 37.5555 60.3971 50.4658 57.0965C63.3788 53.7954 74.7543 49.7057 82.7064 45.7632C90.3 41.9983 94.6884 38.5336 94.0699 36.2627C93.4498 33.993 87.871 33.078 79.3502 33.4327C70.4281 33.8041 58.4555 35.6839 45.5479 38.983L45.5332 38.9846L45.5339 38.9864C32.6204 42.2882 21.2448 46.3781 13.2923 50.3206C5.69902 54.0855 1.31149 57.5499 1.92955 59.8209C2.5472 62.0902 8.12785 63.0056 16.6505 62.6503H16.6507Z" fill="url(#paint1_linear_414_26)"/>
<path fill-rule="evenodd" clip-rule="evenodd" d="M55.8658 42.6047C48.1242 32.0691 40.1583 23.1988 33.5378 17.3753C27.2221 11.8198 22.3292 9.06397 20.3565 10.4253C18.3836 11.7867 19.4704 17.1696 22.8222 24.7717C26.3304 32.7278 32.3653 42.9103 40.0968 53.4366L40.1213 53.4697C47.8631 64.0062 55.8287 72.876 62.449 78.6995C68.7648 84.255 73.6578 87.0106 75.6305 85.6493C77.6034 84.2881 76.5167 78.9048 73.1645 71.3027C69.6526 63.338 63.6088 53.1425 55.866 42.6047H55.8658ZM34.8104 16.0199C41.5181 21.9208 49.5798 30.8951 57.4043 41.5436C65.2272 52.1905 71.3413 62.5096 74.9026 70.5859C78.6231 79.0235 79.5249 85.2088 76.7253 87.1404C73.9257 89.0722 68.1885 86.2229 61.1765 80.0547C54.4751 74.1598 46.4229 65.1973 38.6058 54.5623L38.5813 54.5292C30.7586 43.8829 24.6449 33.5644 21.0838 25.4887C17.3635 17.0511 16.462 10.866 19.2615 8.93438C22.0611 7.00278 27.7981 9.85213 34.8104 16.0201V16.0199Z" fill="url(#paint2_linear_414_26)"/>
<path fill-rule="evenodd" clip-rule="evenodd" d="M57.6722 47.903C57.5465 34.9728 56.2534 23.2837 54.2649 14.8376C52.3675 6.77906 49.9819 1.80592 47.5586 1.82805C45.1378 1.84998 42.8499 6.86658 41.1087 14.9588C39.2837 23.4403 38.2173 35.153 38.3426 48.086L38.3463 48.0958H38.3426C38.4681 61.026 39.7615 72.7151 41.7498 81.1614C43.6472 89.2199 46.033 94.1935 48.4563 94.1714C50.8773 94.1494 53.1652 89.1326 54.9064 81.0402C56.7314 72.5583 57.7973 60.8452 57.6722 47.9116L57.6685 47.9044L57.6722 47.903ZM56.1069 14.4361C58.1224 22.995 59.4324 34.8249 59.5587 47.8958L59.5624 47.903L59.5587 47.9044C59.6848 60.9718 58.6043 72.8203 56.7556 81.413C54.8229 90.3961 51.9085 95.9688 48.4709 95.9999C45.036 96.0312 42.0146 90.5115 39.9077 81.5632C37.8927 73.0044 36.5823 61.1745 36.4561 48.103L36.4524 48.0934H36.4561C36.3302 35.0264 37.4106 23.1787 39.2592 14.5862C41.1922 5.60331 44.1066 0.0310364 47.544 0.000132453C50.9787 -0.0311702 54.0001 5.48787 56.1069 14.4363V14.4361Z" fill="url(#paint3_linear_414_26)"/>
<path fill-rule="evenodd" clip-rule="evenodd" d="M56.7799 55.2277C48.0563 65.1939 39.2389 73.4756 32.0363 78.8078C24.5112 84.3789 18.5464 86.7481 15.926 84.5946C13.3038 82.4393 14.7415 76.3494 19.1859 68.2462C23.4376 60.4939 30.4311 50.7139 39.157 40.7447L39.1592 40.7421C47.8824 30.7765 56.6993 22.4954 63.9012 17.1636C71.4263 11.5929 77.3909 9.2241 80.0111 11.378L80.0703 11.4285C82.6101 13.6272 81.1624 19.6828 76.7545 27.7212C72.5055 35.4701 65.5157 45.2461 56.7941 55.2121L56.7799 55.2279V55.2277ZM30.8895 77.3525C37.9908 72.0954 46.7015 63.9103 55.3372 54.0448L55.3516 54.0292C63.9802 44.1689 70.8891 34.5087 75.0826 26.8609C79.0838 19.5644 80.6357 14.2929 78.7906 12.7763C76.942 11.2572 71.8257 13.6013 65.048 18.6189C57.9473 23.8758 49.2373 32.0601 40.6021 41.925L40.5999 41.9278C31.9666 51.791 25.0537 61.4555 20.8577 69.1063C16.8543 76.4056 15.3012 81.6792 17.1469 83.1965C18.9949 84.7152 24.1114 82.3707 30.8897 77.3525H30.8895Z" fill="url(#paint4_linear_414_26)"/>
<defs>
<linearGradient id="paint0_linear_414_26" x1="36.4139" y1="66.1977" x2="36.4186" y2="29.442" gradientUnits="userSpaceOnUse">
<stop stop-color="#F0891A"/>
<stop offset="0.2" stop-color="#8C5921"/>
<stop offset="0.501961" stop-color="#282828"/>
<stop offset="0.8" stop-color="#627A1F"/>
<stop offset="1" stop-color="#9CCC16"/>
</linearGradient>
<linearGradient id="paint1_linear_414_26" x1="36.048" y1="63.3359" x2="36.0513" y2="32.3888" gradientUnits="userSpaceOnUse">
<stop stop-color="#F0891A"/>
<stop offset="0.2" stop-color="#8C5921"/>
<stop offset="0.501961" stop-color="#282828"/>
<stop offset="0.8" stop-color="#627A1F"/>
<stop offset="1" stop-color="#9CCC16"/>
</linearGradient>
<linearGradient id="paint2_linear_414_26" x1="40.4309" y1="84.831" x2="40.4607" y2="10.3815" gradientUnits="userSpaceOnUse">
<stop stop-color="#F0891A"/>
<stop offset="0.2" stop-color="#8C5921"/>
<stop offset="0.501961" stop-color="#282828"/>
<stop offset="0.8" stop-color="#627A1F"/>
<stop offset="1" stop-color="#9CCC16"/>
</linearGradient>
<linearGradient id="paint3_linear_414_26" x1="45.1287" y1="92.4847" x2="45.2431" y2="2.47269" gradientUnits="userSpaceOnUse">
<stop stop-color="#F0891A"/>
<stop offset="0.2" stop-color="#8C5921"/>
<stop offset="0.501961" stop-color="#282828"/>
<stop offset="0.8" stop-color="#627A1F"/>
<stop offset="1" stop-color="#9CCC16"/>
</linearGradient>
<linearGradient id="paint4_linear_414_26" x1="39.6642" y1="82.6437" x2="39.6882" y2="12.5162" gradientUnits="userSpaceOnUse">
<stop stop-color="#F0891A"/>
<stop offset="0.2" stop-color="#8C5921"/>
<stop offset="0.501961" stop-color="#282828"/>
<stop offset="0.8" stop-color="#627A1F"/>
<stop offset="1" stop-color="#9CCC16"/>
</linearGradient>
</defs>
</svg>
